<?xml version="1.0" encoding="utf-8"?>
<!-- Generator: Adobe Illustrator 16.0.0, SVG Export Plug-In . SVG Version: 6.00 Build 0)  -->
<!DOCTYPE svg PUBLIC "-//W3C//DTD SVG 1.1//EN" "http://www.w3.org/Graphics/SVG/1.1/DTD/svg11.dtd">
<svg version="1.1" id="Layer_1" xmlns="http://www.w3.org/2000/svg" xmlns:xlink="http://www.w3.org/1999/xlink" x="0px" y="0px"
	 width="298.781px" height="96.768px" viewBox="0 0 298.781 96.768" enable-background="new 0 0 298.781 96.768"
	 xml:space="preserve">
<g>
	<polygon fill="#FFFFFF" points="100.483,0.395 82.553,0.395 82.553,96.768 125.334,96.768 125.334,81.078 100.483,81.078 	"/>
	<rect x="140.034" y="0.395" fill="#FFFFFF" width="16.875" height="96.373"/>
	<polygon fill="#FFFFFF" points="213.335,0.395 200.481,38.43 187.692,0.395 168.774,0.395 191.582,58.864 191.582,96.768 
		209.248,96.768 209.248,58.139 232.122,0.395 	"/>
	<polygon fill="#FFFFFF" points="31.739,0 54.296,96.768 72.114,96.768 48.186,0 	"/>
	<polygon fill="#FFFFFF" points="0,96.768 17.93,96.768 28.767,49.21 20.487,13.688 	"/>
	<polygon fill="#FFFFFF" points="226.667,96.768 243.989,96.768 266.547,0 250.529,0 	"/>
	<polygon fill="#FFFFFF" points="278.012,12.777 269.584,48.93 280.786,96.768 298.781,96.768 	"/>
</g>
</svg>
