<?xml version="1.0" encoding="utf-8"?>
<!-- Generator: Adobe Illustrator 17.1.0, SVG Export Plug-In . SVG Version: 6.00 Build 0)  -->
<!DOCTYPE svg PUBLIC "-//W3C//DTD SVG 1.1//EN" "http://www.w3.org/Graphics/SVG/1.1/DTD/svg11.dtd">
<svg version="1.1" id="Layer_1" xmlns="http://www.w3.org/2000/svg" xmlns:xlink="http://www.w3.org/1999/xlink" x="0px" y="0px"
	 viewBox="0 0 395 102.9" enable-background="new 0 0 395 102.9" xml:space="preserve">
<polygon fill="#FFFFFF" points="345.4,28.8 344.7,31.1 346,30.9 "/>
<polygon fill="#FFFFFF" points="346,30.9 367.7,28.8 357,0 333.7,0 321.5,33.3 344.7,31.1 "/>
<polygon fill="#FFFFFF" points="247.4,0 220.7,0 241.4,41.2 264,39 "/>
<polygon fill="#FFFFFF" points="312.1,0 285.3,0 269,38.5 294,36 "/>
<polygon fill="#FFFFFF" points="0,102.9 26.5,102.9 30.7,89.4 3.3,93.9 "/>
<polygon fill="#FFFFFF" points="66.4,83.7 72.4,102.9 99.1,102.9 90.4,79.4 64.8,83.7 "/>
<polygon fill="#FFFFFF" points="106.6,102.9 174.6,102.9 174.6,83.8 131.4,83.8 131.4,72.5 106.6,76.7 "/>
<polygon fill="#FFFFFF" points="211.5,0 186.7,0 186.7,46.6 211.5,44.1 "/>
<polygon fill="#FFFFFF" points="186.7,102.9 211.5,102.9 211.5,59.1 186.7,63.3 "/>
<polygon fill="#FFFFFF" points="131.4,0 106.6,0 106.6,54.4 131.4,52 "/>
<polygon fill="#FFFFFF" points="347.7,36.4 356.5,64.5 334.4,64.5 342.8,37.2 318.6,41.2 296,102.9 322.5,102.9 328.4,83.7 
	362.4,83.7 368.4,102.9 395,102.9 369.1,32.8 "/>
<polygon fill="#FFFFFF" points="253.8,65.9 253.8,102.9 279,102.9 279,65.9 288.9,46.2 247.4,53.1 "/>
<polygon fill="#FFFFFF" points="49.4,28.8 58.8,59.1 82,56.8 61,0 37.7,0 14.5,63.5 39.4,61 "/>
</svg>
