<?xml version="1.0" encoding="utf-8"?>
<!-- Generator: Adobe Illustrator 16.0.0, SVG Export Plug-In . SVG Version: 6.00 Build 0)  -->
<!DOCTYPE svg PUBLIC "-//W3C//DTD SVG 1.1//EN" "http://www.w3.org/Graphics/SVG/1.1/DTD/svg11.dtd">
<svg version="1.1" id="Layer_1" xmlns="http://www.w3.org/2000/svg" xmlns:xlink="http://www.w3.org/1999/xlink" x="0px" y="0px"
	 width="295.774px" height="96.768px" viewBox="0 0 295.774 96.768" enable-background="new 0 0 295.774 96.768"
	 xml:space="preserve">
<g>
	<polygon fill="#FFFFFF" points="99.476,0.395 81.546,0.395 81.546,96.768 124.327,96.768 124.327,81.078 99.476,81.078 	"/>
	<rect x="139.027" y="0.395" fill="#FFFFFF" width="16.875" height="96.373"/>
	<polygon fill="#FFFFFF" points="212.328,0.395 199.475,38.43 186.686,0.395 167.768,0.395 190.575,58.864 190.575,96.768 
		208.241,96.768 208.241,58.139 231.115,0.395 	"/>
	<polygon fill="#FFFFFF" points="0,96.768 17.93,96.768 23.467,72.443 47.696,72.443 18.071,23.485 	"/>
	<polygon fill="#FFFFFF" points="31.679,0 48.561,72.443 48.582,72.443 54.119,96.768 72.114,96.768 48.186,0 	"/>
	<polygon fill="#FFFFFF" points="277.674,23.57 248.101,72.443 272.242,72.443 277.779,96.768 295.774,96.768 	"/>
	<polygon fill="#FFFFFF" points="247.522,0 223.66,96.768 241.59,96.768 247.127,72.443 247.236,72.443 264.117,0 	"/>
</g>
</svg>
