<?xml version="1.0" encoding="utf-8"?>
<!-- Generator: Adobe Illustrator 16.0.0, SVG Export Plug-In . SVG Version: 6.00 Build 0)  -->
<!DOCTYPE svg PUBLIC "-//W3C//DTD SVG 1.1//EN" "http://www.w3.org/Graphics/SVG/1.1/DTD/svg11.dtd">
<svg version="1.1" id="Layer_1" xmlns="http://www.w3.org/2000/svg" xmlns:xlink="http://www.w3.org/1999/xlink" x="0px" y="0px"
	 width="343.65px" height="343.65px" viewBox="126.125 248.81 343.65 343.65" enable-background="new 126.125 248.81 343.65 343.65"
	 xml:space="preserve">
<path fill="#FFFFFF" d="M297.95,592.46c-94.873,0-171.825-76.952-171.825-171.825c0-94.873,76.952-171.825,171.825-171.825
	c94.874,0,171.825,76.953,171.825,171.825C469.775,515.508,392.824,592.46,297.95,592.46z M248.963,416.977
	c-10.789,0-21.579,0-32.368,0c7.379-14.944,14.696-29.888,22.075-44.832c3.1-6.139,6.201-12.216,9.239-18.354
	c0-3.969,0-7.999,0-11.968c-17.176,0-34.353,0-51.529,0c-0.062,4.899-0.124,9.797-0.186,14.634
	c10.169,0.062,20.339,0.124,30.508,0.186c-6.821,13.766-13.58,27.532-20.401,41.297c-3.72,7.379-7.441,14.696-11.1,22.075
	c0,3.907,0,7.875,0,11.782c17.92,0.062,35.841,0.124,53.761,0.186C248.963,427.021,248.963,421.999,248.963,416.977z M324.8,342.008
	c-19.285-0.062-38.508-0.124-57.792-0.186c-0.062,5.085-0.124,10.231-0.186,15.316H324.8V342.008z M324.8,379.399
	c-19.285-0.062-38.508-0.124-57.792-0.186c-0.062,5.085-0.124,10.231-0.186,15.316H324.8V379.399z M267.008,416.667
	c-0.062,5.023-0.124,10.107-0.186,15.13c19.285,0.062,38.508,0.124,57.793,0.186c0.061-5.022,0.123-10.107,0.186-15.192
	C305.578,416.791,286.292,416.729,267.008,416.667z M312.583,453.251c0,2.047,0.992,3.039,2.977,3.039
	c1.736,0,3.225-0.683,4.59-1.984c1.363-1.303,1.984-2.542,1.984-3.721c0-1.116-0.373-1.984-1.055-2.542
	c-0.682-0.559-1.799-0.868-3.225-0.868s-2.666,0.682-3.721,1.984C313.142,450.461,312.583,451.825,312.583,453.251z
	 M400.699,341.884c-4.65,0-9.303,0-13.953,0c0,13.89,0,27.718,0,41.608c0,7.627-0.744,16.432,0.992,22.757
	c-1.674-0.868-5.518-13.518-6.572-16.184c-6.264-16.06-12.463-32.121-18.727-48.181c-6.201,0-12.34,0-18.541,0
	c0,30.074,0,60.086,0,90.161c4.65,0,9.301,0,14.014,0c0.063-6.635,0.125-13.27,0.188-19.905c0-15.316-0.063-31.748-1.365-45.142
	c1.674,0.806,5.209,12.773,6.264,15.316c6.324,16.494,12.711,33.05,19.035,49.544c6.264,0.063,12.465,0.124,18.727,0.187
	C400.699,401.971,400.699,371.896,400.699,341.884z M401.195,483.201c-0.559,0.496-2.232,2.047-4.961,4.651
	c-2.791,2.604-4.402,4.154-5.023,4.526c-0.559,0.372-1.055,0.558-1.363,0.558c-0.373,0-0.559-0.31-0.559-0.93
	s0.992-3.845,2.977-9.735s2.977-9.611,2.977-11.224c0-3.286-1.365-4.961-4.154-4.961c-1.861,0-3.783,0.559-5.83,1.675
	c-2.045,1.116-3.969,2.542-5.705,4.278c-3.596,3.658-6.324,7.192-8.184,10.728c0.992-3.101,2.48-8.247,4.588-15.316h-2.852
	c-1.676,0-3.039,0.248-4.031,0.683c-0.992,0.434-1.799,1.364-2.295,2.728c-1.24,3.101-2.604,7.752-4.092,13.952
	c-1.426,1.488-2.729,2.853-3.969,3.906c-0.619,0.62-1.736,1.675-3.287,3.101c-1.549,1.427-2.666,2.543-3.473,3.225l6.449-27.346
	c-5.891-1.116-10.168-1.674-12.773-1.674c-2.604,0-5.146,0.558-7.627,1.736c-2.48,1.116-4.713,2.666-6.572,4.588
	c-1.861,1.923-3.535,4.093-4.961,6.512c-1.303,2.17-2.232,4.464-2.977,6.82v-2.666c-1.922,2.17-4.527,4.836-7.813,8.061
	c-3.287,3.225-5.209,4.837-5.83,4.837c-0.992,0-1.488-0.93-1.488-2.79c0-2.853,2.232-11.41,6.697-25.672
	c-1.611,0-2.977,0.063-4.029,0.124c-0.807,0.063-1.365,0.248-1.736,0.372c-0.373,0.187-0.807,0.435-1.303,0.744
	c-0.496,0.311-0.93,0.744-1.24,1.24c-0.311,0.558-0.744,1.488-1.303,2.853c-0.496,1.302-1.488,4.898-2.914,10.852v-0.683
	l-12.525,10.294c1.984-2.729,2.977-5.085,2.977-7.193c0-1.364-0.93-2.977-2.729-4.837c-0.806-0.806-1.612-1.674-2.48-2.604
	c-2.294-2.295-3.906-4.899-4.836-7.813c1.736,0,3.348-0.496,4.836-1.488s2.232-2.356,2.232-4.093c0-0.992-0.868-1.488-2.667-1.488
	c-4.03,0-7.069,1.055-9.115,3.225c-2.046,2.171-3.038,4.898-3.038,8.186c0,2.232,0.372,4.278,1.116,6.139
	c-0.496,0.62-1.364,1.55-2.728,2.977c-0.062,0.062-0.124,0.124-0.186,0.186v-1.488c-0.806,0.744-2.294,2.171-4.465,4.341
	s-3.906,3.906-5.333,5.209c-1.364,1.302-2.977,2.542-4.837,3.721c-1.798,1.178-3.348,1.798-4.588,1.798
	c-4.713,0-7.069-3.225-7.069-9.735c0-2.418,0.62-4.898,1.798-7.441c0.992,1.551,2.17,2.667,3.597,3.411s2.729,1.116,4.031,1.116
	c3.224,0,6.139-1.179,8.743-3.597c2.604-2.356,3.906-5.146,3.906-8.371c0-4.961-3.348-7.441-9.983-7.441
	c-3.968,0-7.503,1.179-10.727,3.597c-3.225,2.418-5.705,5.457-7.441,9.239c-0.93,1.984-1.55,3.969-1.984,6.077
	c-2.418,2.479-4.341,4.464-5.705,5.767c-1.736,1.612-2.853,2.48-3.41,2.48c-0.558,0-0.93-0.187-1.116-0.559s-0.31-1.054-0.31-2.108
	c0-2.17,1.55-8.867,4.65-20.091c3.101-11.223,5.519-19.47,7.255-24.679c0.868-2.977,1.364-4.898,1.488-5.891h-1.488
	c-1.24,0-2.418,0.062-3.472,0.124c-1.116,0.062-2.17,0.496-3.163,1.24c-0.744,0.558-1.55,2.418-2.356,5.643l-5.643,20.091
	c-1.984-0.62-4.031-0.868-6.139-0.868c-2.108,0-4.527,0.868-7.317,2.666c-2.729,1.736-5.209,3.969-7.317,6.635
	c-2.17,2.667-3.906,5.705-5.271,8.991c-1.364,3.349-2.046,6.263-2.046,8.806c0,2.542,0.31,4.65,0.992,6.448
	c0.372,0.931,0.992,1.736,1.798,2.295c0.806,0.558,1.984,0.868,3.535,0.868c1.55,0,3.844-0.992,6.883-2.977
	c3.038-1.984,6.139-4.774,9.177-8.31c-0.496,1.984-0.744,3.845-0.744,5.644c0,3.72,1.178,5.643,3.472,5.643
	c0.806,0,1.86-0.372,3.039-1.179c0.62-0.434,1.24-0.868,1.798-1.24c0.558-0.434,1.24-0.992,2.108-1.736s1.55-1.364,2.108-1.922
	c0.558-0.496,1.364-1.24,2.294-2.232l2.232-2.17c0.434-0.435,1.178-1.179,2.046-2.047c0,0.124,0,0.311,0,0.435
	c0,2.294,0.31,4.278,0.868,5.891c1.55,4.154,5.581,6.201,11.905,6.201c3.163,0,6.511-1.303,10.045-3.845
	c1.55-1.116,3.163-2.48,4.899-4.03c0,0.186-0.062,0.434-0.062,0.62c0,2.79,1.364,4.712,4.154,5.828
	c1.24,0.496,2.418,0.868,3.721,1.116c1.24,0.248,2.48,0.311,3.596,0.311s2.294-0.124,3.411-0.496
	c1.116-0.311,2.17-0.683,3.163-1.055c0.93-0.434,2.108-0.992,3.41-1.86c1.302-0.806,2.356-1.488,3.163-2.108
	c0.806-0.558,1.922-1.426,3.286-2.542c1.364-1.116,2.356-1.922,2.977-2.418s1.551-1.364,2.915-2.543
	c0.496-0.496,0.93-0.868,1.303-1.178c-0.932,4.093-1.365,6.821-1.365,8.186c0,1.735,0.311,3.162,0.93,4.278
	c0.621,1.116,1.551,1.674,2.791,1.674c2.48-0.124,5.395-1.612,8.805-4.465c1.799-1.487,5.271-4.836,10.418-9.859
	c-0.434,1.923-0.682,3.783-0.682,5.52c0,2.356,0.496,4.402,1.551,6.139c1.053,1.736,2.604,2.604,4.65,2.604
	c2.107,0,4.34-0.559,6.695-1.675c2.357-1.116,5.396-3.286,8.992-6.511l-1.363,7.193l-11.658,9.239
	c-0.186,0.124-0.621,0.496-1.365,1.054c-0.744,0.559-1.24,0.931-1.426,1.116c-0.186,0.187-0.559,0.496-1.115,0.992
	c-0.559,0.496-0.932,0.868-1.117,1.116s-0.434,0.62-0.744,1.054c-0.309,0.435-0.496,0.807-0.619,1.24
	c-0.125,0.372-0.125,1.055-0.125,1.923s0.436,1.798,1.303,2.729c0.867,0.93,1.859,1.612,3.039,2.046
	c1.178,0.434,2.541,0.62,4.029,0.62c1.551,0,3.225-0.558,5.146-1.674c1.924-1.116,3.721-2.667,5.52-4.713
	c3.844-4.526,6.387-10.418,7.752-17.734l10.168-9.859c-1.053,4.837-1.611,8.495-1.611,10.852h8.061
	c0.93-4.217,2.977-9.611,6.016-16.185c1.488-3.162,3.1-5.891,4.961-8.123c1.859-2.232,3.596-3.349,5.207-3.349
	c0.436,0,0.869,0.187,1.18,0.62c0.309,0.435,0.496,1.055,0.496,1.984c0,0.931-0.559,2.666-1.613,5.333
	c-1.055,2.666-2.107,5.643-3.162,8.929c-1.055,3.287-1.611,6.077-1.611,8.495c0,2.356,1.053,3.535,3.162,3.535
	c1.178,0,3.473-1.364,6.883-4.031c3.473-2.666,7.441-6.324,11.904-10.851v-4.775H401.195z M335.464,496.1
	c-2.727,0-4.092-2.729-4.092-8.186c0-4.465,1.365-8.743,4.031-12.897c1.24-1.86,2.729-3.473,4.465-4.713
	c1.797-1.24,3.596-1.86,5.518-1.86c0.682,0,2.109,0.248,4.154,0.744l-4.898,20.587C340.921,493.991,337.884,496.1,335.464,496.1z
	 M282.758,498.703c-1.178,0.62-2.667,0.931-4.589,0.931c-1.86,0-3.658-0.559-5.271-1.612s-2.48-2.418-2.48-4.03
	s1.674-3.845,4.96-6.821c1.488-1.364,2.356-2.17,2.604-2.418c0.248,0.31,0.806,0.992,1.612,1.984s1.426,1.736,1.86,2.294
	s0.868,1.24,1.426,2.108s0.93,1.674,1.178,2.48c0.248,0.806,0.372,1.674,0.372,2.666
	C284.494,497.216,283.874,498.021,282.758,498.703z M255.909,470.8c1.054-0.558,2.232-0.868,3.534-0.868
	c1.24,0,2.232,0.311,2.853,0.93c0.682,0.62,0.992,1.799,0.992,3.597c0,1.799-0.62,3.473-1.798,5.085s-2.604,2.418-4.216,2.418
	c-2.604,0-4.961-1.364-7.069-4.154c0.558-1.55,1.55-3.225,2.977-4.837C253.862,472.04,254.792,471.357,255.909,470.8z
	 M216.781,491.883c-2.729,2.046-4.96,3.038-6.759,3.038c-2.294,0-3.473-1.798-3.473-5.395c0-2.853,0.682-5.891,1.984-9.054
	c1.302-3.162,3.101-5.891,5.395-8.061c2.294-2.232,4.651-3.349,7.069-3.349c0.744,0,1.612,0.187,2.48,0.496
	c0.868,0.372,1.364,0.744,1.488,1.116l-3.72,16.37C220.936,488.225,219.448,489.836,216.781,491.883z M333.667,522.391
	c-1.117,0-1.922-0.186-2.357-0.62c-0.496-0.434-0.744-1.178-0.744-2.294s0.248-2.171,0.744-3.225
	c0.188-0.372,0.436-0.744,0.869-1.178c0.371-0.435,0.682-0.744,0.93-0.931c0.248-0.186,0.621-0.496,1.115-0.868
	c0.496-0.372,0.869-0.682,0.992-0.806l6.945-5.892c-0.557,4.775-1.488,8.62-2.914,11.472
	C337.759,520.965,335.9,522.391,333.667,522.391z"/>
</svg>
